<svg width="14" height="14" viewBox="0 0 14 14" fill="none" xmlns="http://www.w3.org/2000/svg">
<path d="M5.65974 7.54633H0.943293C0.676028 7.54633 0.452154 7.45577 0.271671 7.27466C0.0911881 7.09355 0.000632113 6.86967 3.25272e-06 6.60303C-0.000625607 6.3364 0.0899304 6.11252 0.271671 5.93141C0.453412 5.7503 0.677286 5.65974 0.943293 5.65974H5.65974V0.943293C5.65974 0.676028 5.7503 0.452154 5.93141 0.271671C6.11252 0.0911881 6.3364 0.000632113 6.60303 3.25272e-06C6.86967 -0.000625607 7.09386 0.0899304 7.2756 0.271671C7.45734 0.453412 7.54758 0.677286 7.54633 0.943293V5.65974H12.2628C12.53 5.65974 12.7542 5.7503 12.9353 5.93141C13.1165 6.11252 13.2067 6.3364 13.2061 6.60303C13.2054 6.86967 13.1149 7.09386 12.9344 7.2756C12.7539 7.45734 12.53 7.54758 12.2628 7.54633H7.54633V12.2628C7.54633 12.53 7.45577 12.7542 7.27466 12.9353C7.09355 13.1165 6.86967 13.2067 6.60303 13.2061C6.3364 13.2054 6.11252 13.1149 5.93141 12.9344C5.7503 12.7539 5.65974 12.53 5.65974 12.2628V7.54633Z" fill="#414E74"/>
</svg>
