<svg width="11" height="11" viewBox="0 0 11 11" fill="none" xmlns="http://www.w3.org/2000/svg">
<path d="M11 5.5C11 8.53765 8.53765 11 5.5 11C2.46235 11 0 8.53765 0 5.5C0 2.46235 2.46235 0 5.5 0V1.1C4.44649 1.10012 3.428 1.47823 2.62963 2.16562C1.83127 2.853 1.30604 3.80402 1.14941 4.84582C0.992772 5.88761 1.21513 6.95103 1.77608 7.84279C2.33702 8.73454 3.1993 9.39543 4.2062 9.70533C5.21309 10.0152 6.29776 9.95357 7.26305 9.53156C8.22834 9.10954 9.01017 8.35519 9.46644 7.40561C9.9227 6.45604 10.0231 5.37427 9.74943 4.35693C9.47574 3.3396 8.84612 2.45423 7.975 1.86175V3.3H6.875V0H10.175V1.1H8.8C9.48339 1.61201 10.038 2.27626 10.4199 3.04003C10.8018 3.80381 11.0004 4.64608 11 5.5Z" fill="#414E74"/>
<line x1="4.22361" y1="4.32918" x2="5.32918" y2="3.77639" stroke="#414E74" stroke-linecap="round"/>
<line x1="5.5" y1="7.5" x2="5.5" y2="3.5" stroke="#414E74" stroke-linecap="round"/>
</svg>
