<svg width="14" height="14" viewBox="0 0 14 14" fill="none" xmlns="http://www.w3.org/2000/svg">
<path fill-rule="evenodd" clip-rule="evenodd" d="M0.00599998 4.797C0.00599998 3.117 0.00600001 2.277 0.333 1.637C0.621638 1.07387 1.07987 0.615638 1.643 0.327C2.285 2.98023e-08 3.123 0 4.803 0H9.203C10.883 0 11.723 2.98023e-08 12.363 0.327C12.9261 0.615638 13.3844 1.07387 13.673 1.637C14 2.279 14 3.117 14 4.797V6.507C14 7.241 14 7.607 13.917 7.957C13.8436 8.26304 13.7224 8.55562 13.558 8.824C13.372 9.127 13.113 9.386 12.594 9.904L9.904 12.594C9.385 13.113 9.126 13.372 8.824 13.558C8.55562 13.7224 8.26304 13.8436 7.957 13.917C7.612 14 7.245 14 6.507 14H4.797C3.117 14 2.277 14 1.637 13.673C1.07306 13.3855 0.614525 12.9269 0.327 12.363C-2.98023e-08 11.721 0 10.883 0 9.203V4.803L0.00599998 4.797ZM4.806 0.997H9.206C10.063 0.997 10.646 0.997 11.096 1.035C11.534 1.07 11.759 1.135 11.915 1.215C12.291 1.407 12.597 1.713 12.789 2.089C12.869 2.245 12.934 2.469 12.969 2.908C13.006 3.358 13.007 3.938 13.007 4.798V6.508C13.007 6.70067 13.0063 6.86333 13.005 6.996H8.505C8.10717 6.996 7.72564 7.15404 7.44434 7.43534C7.16304 7.71664 7.005 8.09818 7.005 8.496V12.996L6.516 12.997H4.806C3.949 12.997 3.366 12.997 2.916 12.96C2.478 12.924 2.253 12.859 2.096 12.78C1.72006 12.5881 1.41448 12.2822 1.223 11.906C1.143 11.75 1.078 11.525 1.043 11.086C1.006 10.637 1.006 10.057 1.006 9.197V4.797C1.006 3.941 1.007 3.357 1.044 2.907C1.08 2.47 1.144 2.245 1.224 2.089C1.416 1.713 1.722 1.407 2.098 1.215C2.254 1.135 2.478 1.07 2.917 1.035C3.367 0.998 3.946 0.997 4.806 0.997ZM8.006 12.897C8.11078 12.8549 8.2118 12.8041 8.308 12.745C8.486 12.636 8.652 12.479 9.204 11.927L11.894 9.237C12.446 8.684 12.603 8.519 12.712 8.341C12.772 8.24433 12.8227 8.14367 12.864 8.039H8.504C8.37139 8.039 8.24421 8.09168 8.15045 8.18545C8.05668 8.27921 8.004 8.40639 8.004 8.539V12.899L8.006 12.897Z" fill="white"/>
</svg>
