<svg width="10" height="15" viewBox="0 0 10 15" fill="none" xmlns="http://www.w3.org/2000/svg">
<path d="M7.08788 1.77966V12.4932C7.08788 13.0824 7.56473 13.5645 8.14754 13.5645C8.73034 13.5645 9.20718 13.0824 9.20718 12.4932V1.77966C9.20718 1.19042 8.73034 0.708313 8.14754 0.708313C7.56473 0.708313 7.08788 1.19042 7.08788 1.77966Z" fill="#414E74"/>
<path d="M2.82682 1.77887V12.4924C2.82682 13.0816 2.34998 13.5637 1.76717 13.5637C1.18436 13.5637 0.70752 13.0816 0.70752 12.4924V1.77887C0.70752 1.18963 1.18436 0.70752 1.76717 0.70752C2.34998 0.70752 2.82682 1.18963 2.82682 1.77887Z" fill="#414E74"/>
<path d="M7.08788 1.77966V12.4932C7.08788 13.0824 7.56473 13.5645 8.14754 13.5645C8.73034 13.5645 9.20718 13.0824 9.20718 12.4932V1.77966C9.20718 1.19042 8.73034 0.708313 8.14754 0.708313C7.56473 0.708313 7.08788 1.19042 7.08788 1.77966Z" stroke="#414E74" stroke-width="1.41494" stroke-linecap="round"/>
<path d="M2.82682 1.77887V12.4924C2.82682 13.0816 2.34998 13.5637 1.76717 13.5637C1.18436 13.5637 0.70752 13.0816 0.70752 12.4924V1.77887C0.70752 1.18963 1.18436 0.70752 1.76717 0.70752C2.34998 0.70752 2.82682 1.18963 2.82682 1.77887Z" stroke="#414E74" stroke-width="1.41494" stroke-linecap="round"/>
</svg>
