<svg width="20" height="20" viewBox="0 0 20 20" fill="none" xmlns="http://www.w3.org/2000/svg">
<path d="M17.5227 5.10447C17.9799 4.64741 18.2368 4.02748 18.2369 3.38103C18.2369 2.73458 17.9802 2.11457 17.5232 1.65741C17.0661 1.20024 16.4462 0.943364 15.7997 0.943283C15.1533 0.943202 14.5333 1.19992 14.0761 1.65698L2.53605 13.1996C2.33529 13.3998 2.18681 13.6463 2.10371 13.9173L0.961461 17.6804C0.939114 17.7552 0.937426 17.8346 0.956577 17.9103C0.975727 17.9859 1.015 18.055 1.07023 18.1102C1.12547 18.1653 1.1946 18.2045 1.27029 18.2235C1.34598 18.2425 1.42541 18.2407 1.50016 18.2182L5.26412 17.0769C5.53491 16.9945 5.78135 16.8469 5.98181 16.6471L17.5227 5.10447Z" stroke="#414E74" stroke-width="1.88658" stroke-linecap="round" stroke-linejoin="round"/>
</svg>
