<svg width="14" height="16" viewBox="0 0 14 16" fill="none" xmlns="http://www.w3.org/2000/svg">
<path d="M1.56214 0.786596C1.47621 0.735649 1.37833 0.708352 1.27844 0.70748C1.17854 0.706608 1.0802 0.732191 0.993394 0.781629C0.906588 0.831068 0.834415 0.902602 0.784205 0.988963C0.733995 1.07532 0.707537 1.17344 0.70752 1.27333V14.3794C0.707537 14.4793 0.733995 14.5774 0.784205 14.6638C0.834415 14.7501 0.906588 14.8217 0.993394 14.8711C1.0802 14.9206 1.17854 14.9461 1.27844 14.9453C1.37833 14.9444 1.47621 14.9171 1.56214 14.8661L12.6203 8.31311C12.7048 8.263 12.7748 8.19177 12.8233 8.10643C12.8719 8.02109 12.8975 7.92458 12.8975 7.82637C12.8975 7.72817 12.8719 7.63165 12.8233 7.54631C12.7748 7.46097 12.7048 7.38975 12.6203 7.33963L1.56214 0.786596Z" fill="#414E74" stroke="#414E74" stroke-width="1.41494" stroke-linecap="round" stroke-linejoin="round"/>
</svg>
