<svg width="13" height="15" viewBox="0 0 13 15" fill="none" xmlns="http://www.w3.org/2000/svg">
<path d="M1.47932 0.779777C1.40172 0.733259 1.31332 0.708336 1.22311 0.707539C1.1329 0.706743 1.04409 0.730101 0.965694 0.775242C0.887301 0.820383 0.822116 0.885697 0.776772 0.96455C0.731427 1.0434 0.707535 1.13299 0.70752 1.2242V13.1908C0.707535 13.2821 0.731427 13.3716 0.776772 13.4505C0.822116 13.5293 0.887301 13.5947 0.965694 13.6398C1.04409 13.6849 1.1329 13.7083 1.22311 13.7075C1.31332 13.7067 1.40172 13.6818 1.47932 13.6353L11.4659 7.65194C11.5421 7.60618 11.6053 7.54115 11.6492 7.46323C11.6931 7.38531 11.7162 7.29719 11.7162 7.20752C11.7162 7.11785 11.6931 7.02973 11.6492 6.95181C11.6053 6.87389 11.5421 6.80885 11.4659 6.7631L1.47932 0.779777Z" fill="#414E74" stroke="#414E74" stroke-width="1.41494" stroke-linecap="round" stroke-linejoin="round"/>
</svg>
