<svg width="19" height="19" viewBox="0 0 19 19" fill="none" xmlns="http://www.w3.org/2000/svg">
<path d="M18.8658 9.4329C18.8658 14.6427 14.6427 18.8658 9.4329 18.8658C4.22311 18.8658 0 14.6427 0 9.4329C0 4.22311 4.22311 0 9.4329 0V1.88658C7.62606 1.88679 5.87926 2.53528 4.51001 3.71419C3.14076 4.8931 2.23995 6.52417 1.97132 8.31093C1.70268 10.0977 2.08404 11.9215 3.0461 13.451C4.00816 14.9804 5.48703 16.1138 7.21393 16.6453C8.94083 17.1768 10.8011 17.0711 12.4567 16.3473C14.1122 15.6235 15.4531 14.3298 16.2356 12.7012C17.0182 11.0726 17.1904 9.21726 16.721 7.47246C16.2516 5.72765 15.1717 4.20918 13.6777 3.19304V5.65974H11.7911V0H17.4509V1.88658H15.0926C16.2647 2.76472 17.216 3.90396 17.8709 5.21388C18.5259 6.52381 18.8665 7.96836 18.8658 9.4329Z" fill="#414E74"/>
</svg>
