<svg width="13" height="14" viewBox="0 0 13 14" fill="none" xmlns="http://www.w3.org/2000/svg">
<path d="M6.50048 8.95003C7.55488 8.95003 8.40965 8.07698 8.40965 7.00002C8.40965 5.92307 7.55488 5.05002 6.50048 5.05002C5.44607 5.05002 4.59131 5.92307 4.59131 7.00002C4.59131 8.07698 5.44607 8.95003 6.50048 8.95003Z" stroke="white"/>
<path d="M1.19315 6.11601C1.49416 6.30841 1.68762 6.63731 1.68762 7.00002C1.68762 7.36272 1.49416 7.69162 1.19315 7.88402C0.988865 8.01597 0.856496 8.12062 0.762947 8.24542C0.661182 8.3809 0.586548 8.53554 0.543307 8.70049C0.500067 8.86544 0.489067 9.03748 0.510936 9.20677C0.544029 9.46287 0.692307 9.72547 0.988229 10.25C1.28542 10.7746 1.4337 11.0365 1.63416 11.1945C1.76681 11.2984 1.91821 11.3746 2.0797 11.4188C2.2412 11.463 2.40964 11.4742 2.57538 11.4519C2.72812 11.4311 2.88276 11.3674 3.09659 11.2517C3.24967 11.1663 3.42145 11.122 3.59586 11.1229C3.77026 11.1238 3.94159 11.1699 4.09381 11.2569C4.40119 11.4389 4.58383 11.7736 4.59656 12.1363C4.60547 12.3833 4.62838 12.5523 4.68756 12.6973C4.75153 12.8551 4.84532 12.9985 4.96358 13.1193C5.08184 13.2401 5.22224 13.3359 5.37677 13.4012C5.61033 13.5 5.90688 13.5 6.5 13.5C7.09312 13.5 7.38967 13.5 7.62323 13.4012C7.77776 13.3359 7.91816 13.2401 8.03642 13.1193C8.15468 12.9985 8.24847 12.8551 8.31244 12.6973C8.37099 12.5523 8.39453 12.3833 8.40344 12.1363C8.41617 11.7736 8.59881 11.4382 8.90619 11.2569C9.05841 11.1699 9.22974 11.1238 9.40414 11.1229C9.57855 11.122 9.75033 11.1663 9.90341 11.2517C10.1172 11.3674 10.2725 11.4311 10.4253 11.4519C10.7598 11.4968 11.0981 11.4042 11.3658 11.1945C11.5663 11.0372 11.7146 10.7746 12.0111 10.25C12.1435 10.016 12.246 9.83467 12.3223 9.68257M11.8069 7.88467C11.658 7.79203 11.5345 7.66236 11.4481 7.50776C11.3616 7.35316 11.3149 7.1787 11.3124 7.00067C11.3124 6.63731 11.5058 6.30841 11.8069 6.11536C12.0111 5.98406 12.1429 5.87941 12.2371 5.75461C12.3388 5.61913 12.4135 5.46449 12.4567 5.29954C12.4999 5.13459 12.5109 4.96255 12.4891 4.79326C12.456 4.53716 12.3077 4.27456 12.0118 3.75001C11.7146 3.22546 11.5663 2.96351 11.3658 2.80556C11.2332 2.70161 11.0818 2.62538 10.9203 2.58122C10.7588 2.53705 10.5904 2.52582 10.4246 2.54815C10.2719 2.56895 10.1172 2.63266 9.90278 2.74836C9.74977 2.8336 9.57811 2.87783 9.40383 2.87692C9.22954 2.87601 9.05833 2.82999 8.90619 2.74316C8.75641 2.65195 8.63173 2.52344 8.5438 2.36963C8.45588 2.21583 8.40759 2.04176 8.40344 1.8637C8.39453 1.6167 8.37162 1.4477 8.31244 1.30275C8.24847 1.14492 8.15468 1.00151 8.03642 0.880721C7.91816 0.759933 7.77776 0.664134 7.62323 0.5988C7.38967 0.5 7.09312 0.5 6.5 0.5C5.90688 0.5 5.61033 0.5 5.37677 0.5988C5.22224 0.664134 5.08184 0.759933 4.96358 0.880721C4.84532 1.00151 4.75153 1.14492 4.68756 1.30275C4.62901 1.4477 4.60547 1.6167 4.59656 1.8637C4.59241 2.04176 4.54412 2.21583 4.4562 2.36963C4.36827 2.52344 4.24359 2.65195 4.09381 2.74316C3.94159 2.83011 3.77026 2.87619 3.59586 2.8771C3.42145 2.87801 3.24967 2.83371 3.09659 2.74836C2.88276 2.63266 2.72748 2.56895 2.57475 2.54815C2.24021 2.50322 1.90189 2.5958 1.63416 2.80556C1.43434 2.96351 1.28542 3.22546 0.988865 3.75001C0.856496 3.98401 0.754037 4.16536 0.67767 4.31746" stroke="white" stroke-linecap="round"/>
</svg>
