<svg width="16" height="14" viewBox="0 0 16 14" fill="none" xmlns="http://www.w3.org/2000/svg">
<path d="M10 0.5L14.75 2.08333V6.04167H12.375V12.375C12.375 12.585 12.2916 12.7863 12.1431 12.9348C11.9947 13.0833 11.7933 13.1667 11.5833 13.1667H3.66667C3.4567 13.1667 3.25534 13.0833 3.10687 12.9348C2.95841 12.7863 2.875 12.585 2.875 12.375V6.04167H0.5V2.08333L5.25 0.5C5.25 1.12989 5.50022 1.73398 5.94562 2.17938C6.39102 2.62478 6.99511 2.875 7.625 2.875C8.25489 2.875 8.85898 2.62478 9.30438 2.17938C9.74978 1.73398 10 1.12989 10 0.5Z" stroke="white" stroke-linecap="round" stroke-linejoin="round"/>
</svg>
