<svg width="16" height="14" viewBox="0 0 16 14" fill="none" xmlns="http://www.w3.org/2000/svg">
<path d="M7.76362 13.5002C10.9317 13.5002 13.4999 10.9319 13.4999 7.76389C13.4999 4.59583 10.9317 2.02762 7.76362 2.02762C4.59556 2.02762 2.02734 4.59583 2.02734 7.76389C2.02734 10.9319 4.59556 13.5002 7.76362 13.5002Z" stroke="white"/>
<path d="M2.81827 0.500122C2.26235 0.649012 1.75543 0.941645 1.34847 1.3486C0.941523 1.75555 0.64889 2.26247 0.5 2.8184M12.7092 0.500122C13.2652 0.649012 13.7721 0.941645 14.179 1.3486C14.586 1.75555 14.8786 2.26247 15.0275 2.8184M7.76376 4.48601V7.55901C7.76376 7.6721 7.85554 7.76388 7.96863 7.76388H10.2222" stroke="white" stroke-linecap="round"/>
</svg>
