<svg width="1126" height="736" viewBox="0 0 1126 736" fill="none" xmlns="http://www.w3.org/2000/svg">
<path d="M1125.97 707.701C1125.97 723.33 1113.3 736 1097.67 736H28.2987C12.6697 736 0 723.33 0 707.701V28.2987C0 12.6698 12.6698 0 28.2987 0H329.689C340.846 0 350.962 6.55585 355.519 16.74L383.048 78.2599C387.605 88.4441 397.721 95 408.879 95H725.368C736.8 95 747.109 88.1218 751.498 77.5661L776.501 17.4339C780.89 6.8782 791.199 0 802.631 0H1097.67C1113.3 0 1125.97 12.6698 1125.97 28.2987V707.701Z" fill="#D9D9D9"/>
</svg>
